/* XPM */
static char *out[] = {
/* columns rows colors chars-per-pixel */
"32 32 119 2 ",
"   c #05273C",
".  c #05283E",
"X  c #17333C",
"o  c #494E30",
"O  c #4C573B",
"+  c #505534",
"@  c #585E3A",
"#  c #625927",
"$  c #5B613D",
"%  c #796724",
"&  c #796929",
"*  c #6D6630",
"=  c #6D6833",
"-  c #766E35",
";  c #052B42",
":  c #0B2D40",
">  c #052F49",
",  c #06314C",
"<  c #0C344A",
"1  c #153440",
"2  c #063653",
"3  c #063856",
"4  c #083957",
"5  c #063A5A",
"6  c #093C5D",
"7  c #113F59",
"8  c #243E40",
"9  c #073F61",
"0  c #083F61",
"q  c #1E4654",
"w  c #13435C",
"e  c #384C42",
"r  c #244751",
"t  c #264C54",
"y  c #204B5B",
"u  c #25525D",
"i  c #295158",
"p  c #074164",
"a  c #0A4165",
"s  c #09456A",
"d  c #05486F",
"f  c #0A486F",
"g  c #134560",
"h  c #134A67",
"j  c #144B68",
"k  c #194F68",
"l  c #195069",
"z  c #064B74",
"x  c #0A4B73",
"c  c #054E79",
"v  c #0A4F79",
"b  c #124F73",
"n  c #05517D",
"m  c #08537F",
"M  c #1A5572",
"N  c #2E5D6A",
"B  c #7B7342",
"V  c #826B21",
"C  c #867227",
"Z  c #967A23",
"A  c #9B7F2B",
"S  c #8E7A34",
"D  c #80783B",
"F  c #8F7F3E",
"G  c #947C30",
"H  c #A9841F",
"J  c #A68526",
"K  c #AD8721",
"L  c #AE8925",
"P  c #B48D24",
"I  c #B48E29",
"U  c #B89026",
"Y  c #BA9229",
"T  c #A58A36",
"R  c #AB8B32",
"E  c #B79332",
"W  c #B6953D",
"Q  c #BD9A3C",
"!  c #C0972B",
"~  c #C29B31",
"^  c #C29D3A",
"/  c #C8A23D",
"(  c #8D8144",
")  c #B99A45",
"_  c #BA9C4C",
"`  c #BB9F52",
"'  c #BEA154",
"]  c #BEA35A",
"[  c #C2A34E",
"{  c #C0A356",
"}  c #C2A75D",
"|  c #C5A858",
" . c #CAAC59",
".. c #065482",
"X. c #0A5482",
"o. c #07598C",
"O. c #0A5B8D",
"+. c #075E93",
"@. c #0A5D91",
"#. c #1C688B",
"$. c #096195",
"%. c #07629B",
"&. c #0A659B",
"*. c #0A699F",
"=. c #1D6D98",
"-. c #0B67A1",
";. c #0768A5",
":. c #0B6BA4",
">. c #0C6EA9",
",. c #0B71AC",
"<. c #1C73A3",
"1. c #1173AE",
"2. c #0E74B1",
"3. c #0F79B7",
"4. c #0C7CBC",
"5. c #1075B0",
"6. c #0C7FC0",
"7. c #0D80C2",
"8. c #1081C2",
/* pixels */
"      > ; ;       ; ;   ;   , < , , > , , , ; ; ; ; ;   ; ; >   ",
"    4 O.a 6 4 > 6 6 6 6 4 6 :.5.,.,.,.,.2.,.6 z n n c 0 6 s o.> ",
"  2 O.x a a 6 > 6 a a a 6 3 >.6.4.4.4.4.7.4.6 ....n f a a f *.> ",
"> O.x a a a 6 : 6 a 0 a 6 3 -.4.4.4.4.4.4.4.p $.x p a a a v %.> ",
"; d f f f f s > s f f f 0 0 :.6.6.6.7.4.7.8.5 f x d f f v >.;., ",
"> $.*.*.*.*.@.2 @.-.-.*.O.0 :.6.7.7.8.7.8.,.6 o.*.*.-.*.-.>.*.> ",
"  , 2 2 5 5 3 > , , 2 3 4 2 6 9 6 2 5 3 6 2 , 2 2 5 3 2 > 2 > ; ",
"  5 6 s %.%.&.a 0 0 0 f +.+.-.+.o.9 ..2 d c c c n *.@.> ; 6 3   ",
"; 6 a a 0 0 -.f 0 a a a s f j u i t w 2 9 s a p s f s , ; 6 0 ; ",
"; s f f 0 2 -.f a 0 a a 0 q $ Z A G e > 6 a a p a 0 f @., 6 6   ",
"> o.$.@.0 , @.0 6 0 0 6 7 @ K K ^ | B 1 4 6 5 w 6 6 a @., 0 0 ; ",
"; 9 2 9 4 4 0 7 2 ; ; : X V U K Y [ T 8 , , < 2 3 3 3 6 > 6 6   ",
", &.4 O.&.-.&.-.@.< : : # L K ! I ) | - j O.5 &.,.>.;.%., 0 a ; ",
"2 5.4 f v -.X.-.x 0 0 7 & Y Z ! W ) [ S l &.p 1.4.4.4.,.4 z c ; ",
"< 5.4 6 g f 0 f 0 0 0 g & Y A P _ ` { S k &.a ,.4.4.4.,.4 c n ; ",
"< &.2 4 0 6 0 6 0 0 6 7 & Y K P ` ] ' S k &.a ,.4.4.4.,.2 z z ; ",
"  6 > > , > , 4 2 , 4 < % U K P ` { ' S M -.9 2.6.7.7.2.2 5 5 ; ",
"  4 6 6 6 6 0 @.v 4 &.h & I H P _ ` } F =.;.5 >.3.3.3.>.3 %.%.> ",
"; 6 0 a a a f :.$.a 5.b & Y H P W ) } ( <.;.4 9 0 6 6 5 2 %.%.> ",
"  6 6 6 6 6 6 s 0 6 5.b * I K ~ E Q [ D <.;.3 X.a 0 6 6 6 f s ; ",
"  2 2 > , , , > ; 2 5.x y C U K Y ^ T N 1.;.3 z x x z z x x s . ",
"> &.&., d c z 6 6 2 5.v g = I K /  .( #.;.+.4 o.&.&.&.&.&.&.O.> ",
", >.>.2 a s a a 6 6 5.x s b - J R T e 2 4 6 2 2 3 3 3 3 3 3 2 . ",
", ,.,.2 x s a 0 6 6 5.v 0 0 r o + O r 5 s %.*.c c n n n c c c > ",
", >.,.2 c s p a 6 4 5.v a 0 4 ; > 6 a a s ....f s n ..m d v O., ",
", >.,., p p a a 6 4 5.x a a 6 ; . 6 a a a s a a p s s s x O.2   ",
", >.,.2 4 a a a 6 4 :.f 6 6 6 : ; 4 6 6 6 6 6 6 6 6 p a O.3     ",
", *.>., a a a a 6 > 4 2 ; ; . . ; > ; > > > , > > ; , 2 3 , ,   ",
"  p *.3 z s a a 0 2 %.@.> ; ; 2 X.f 6 6 9 c c n c 3 2.,.2.4.:.> ",
"> &.:.3 n m s a d 2 &.x 0 6 6 0 a a 0 a a s s ..n 3 7.6.4.4.,., ",
"; n &., z n c p 6 2 @.0 0 6 6 6 6 6 0 6 6 6 9 c c 2 2.,.,.,.*.> ",
". ; >   ; > ;   ;   > ; ; ;   ; : ; . ; . . ; ; > . , , > , >   "
};
