/* XPM */
static char *out[] = {
/* columns rows colors chars-per-pixel */
"32 32 130 2 ",
"   c #05273C",
".  c #05283E",
"X  c #1B353B",
"o  c #37483C",
"O  c #47553E",
"+  c #4E573B",
"@  c #052B42",
"#  c #052F49",
"$  c #0E3144",
"%  c #06314C",
"&  c #0F394E",
"*  c #163542",
"=  c #163D4E",
"-  c #063553",
";  c #063856",
":  c #0B3A56",
">  c #063A5A",
",  c #093D5D",
"<  c #063E61",
"1  c #093E61",
"2  c #174155",
"3  c #1C4453",
"4  c #12435C",
"5  c #1B475A",
"6  c #1D4859",
"7  c #324F4C",
"8  c #3C5145",
"9  c #365D5F",
"0  c #074164",
"q  c #0A4165",
"w  c #09456A",
"e  c #05486F",
"r  c #0A486F",
"t  c #114462",
"y  c #154A65",
"u  c #194C63",
"i  c #114A6B",
"p  c #1E5267",
"a  c #18516E",
"s  c #064B74",
"d  c #0A4B73",
"f  c #054E79",
"g  c #0A4F79",
"h  c #05517D",
"j  c #08537F",
"k  c #135072",
"l  c #445443",
"z  c #4A5943",
"x  c #415749",
"c  c #555F41",
"v  c #465F51",
"b  c #506E60",
"n  c #4D7B79",
"m  c #876E1F",
"M  c #8E731F",
"N  c #93741C",
"B  c #886F20",
"V  c #877023",
"C  c #8B7323",
"Z  c #927623",
"A  c #997B23",
"S  c #937B2D",
"D  c #917D33",
"F  c #AA841F",
"G  c #9C8129",
"H  c #968034",
"J  c #AB8622",
"K  c #B68F26",
"L  c #B89027",
"P  c #B6902A",
"I  c #A38632",
"U  c #AA8A30",
"Y  c #A98E3C",
"T  c #B18E32",
"R  c #AD903C",
"E  c #BA9635",
"W  c #B0923C",
"Q  c #BC9838",
"!  c #C49B2D",
"~  c #C89F2F",
"^  c #C59E33",
"/  c #C99F30",
"(  c #CCA332",
")  c #C7A13B",
"_  c #CBA43D",
"`  c #B3984B",
"'  c #C5A144",
"]  c #CBA643",
"[  c #CEA843",
"{  c #C5A348",
"}  c #CAA749",
"|  c #CCA94B",
" . c #D0AF56",
".. c #D0B058",
"X. c #D2B462",
"o. c #D7BB6D",
"O. c #DABF77",
"+. c #D9BF7A",
"@. c #065482",
"#. c #0A5281",
"$. c #06588B",
"%. c #0A5B8D",
"&. c #135F8C",
"*. c #075C90",
"=. c #095D91",
"-. c #186288",
";. c #096194",
":. c #07629B",
">. c #0A659B",
",. c #0A699F",
"<. c #126794",
"1. c #176995",
"2. c #1B6993",
"3. c #387888",
"4. c #0E67A0",
"5. c #0B6BA4",
"6. c #0C6EA9",
"7. c #0B71AB",
"8. c #1D7BA7",
"9. c #1776A9",
"0. c #0E74B1",
"q. c #0C7CBC",
"w. c #1075B1",
"e. c #137CB3",
"r. c #107EBE",
"t. c #2279A3",
"y. c #207EAA",
"u. c #0C7FC0",
"i. c #0D81C3",
"p. c #1081C2",
/* pixels */
"      # @ @     @ . @ @ . . # % % % % % % # @ @ # @ @ @ @ @ @   ",
"    : %.q , ; # ; , , , ; : 5.0.7.7.7.7.0.7.; s @.f f 1 , w =.# ",
"  - %.d q q , # , q q q , ; 6.r.q.q.q.q.u.r.< @.@.h r q 1 r :.# ",
"# %.d q q q , @ , q q q , ; 5.r.q.q.q.q.u.u.< =.d w 1 1 w f 4.# ",
"@ e d r r r w # w r r d 1 , 5.u.u.u.u.u.i.r.> r d r r e g 6.5.# ",
"# ;.>.,.,.,.;.- =.,.,.>.=.1 6.u.p.u.p.u.u.9.> *.,.,.,.4.4.6.:.# ",
"  % - - > > : # % - - ; ; - , < , ; > ; ; ; # ; ; > > - # - -   ",
"@ , , w ;.:.>.q 1 , , w =.:.:.:.$.< j ; e f f f f ,.=.@ @ , ; @ ",
"  , q q 1 1 5.r 1 1 1 w w i u u u 5 4 % 0 q w q w r w % @ , , @ ",
"@ w d r 1 - 4.r 1 w 1 t 3 z C C V C + * 4 q q q q 1 r =.% 1 , @ ",
"# $.=.*.1 % =.1 , , , 7 m A ! ~ ) ] U V l 4 , , , , w =.% , ,   ",
"@ < ; < > : 1 : - $ o A ! ! ! ! ! ! ) } I o $ - ; ; ; > # , , @ ",
"# ,.; %.=.6.4.4.&.o A ~ ! K F F J J P ) ] I l 1.6.6.6.:.- 1 q @ ",
"- w.: r g 4.#.4.a B ! ! K K ~ ( ) _ E E ) | S t.q.q.q.7.- s f @ ",
"% w.: 1 1 r 1 k x A ~ ! K ~ ( ( ( ( _ Q Q ] R n e.q.q.7.; f f # ",
"% <.- : 1 1 1 = B ^ ! A ~ ( ( ( ( ( ( _ T Q X.D 8.q.q.6.; s e @ ",
"@ : @ # % # % = N ~ ~ A / ( ( ( ( ( ( [ T ' o.H y.i.u.0.; < < @ ",
"@ ; , , ; , q -.N ~ ! F / ( ( ( ( ( ( [ T { O.D t.e.e.6.; =.=.# ",
". , q q q q r 2.M ! ! A ~ ( ( ( ( ( ( [ T { +.S 2 1 , > ; =.:.# ",
"@ ; , , , , 1 t + A ! L L / ( ( ( ( [ ] Q | ` b t , , , 1 e e @ ",
". - - @ % % % # X m ! ! K K / ~ ( _ ) E ) ..S p d d d e d d w @ ",
"# >.>.- e s s , : O A ^ ~ K J J J K E _ | Y O %.>.>.>.,.:.>.%.# ",
"% 7.6.- w w w q , : 3.G ! ! ! ! L ^ } ..Y 8 & ; ; > > > > > ;   ",
"% 7.7.- d q q q , , 9.9 N A ! / [  .W C v <.4.h f f h f f f f @ ",
"% 6.7.- s 0 q q 1 : w.k 5 z N N Z Z c 6 y @.@.e e h @.h r h %.# ",
"% 7.7.- 0 0 q q , : w.s 1 t 3 X X 3 4 q q q w q q q w w d %.;   ",
"% 6.7.% q q q q , ; 5.r , , : @ @ : 1 1 , , , , , 1 , q %.;     ",
"# ,.6.% q q q q , # ; - @ @ @ @ # @ @ @ # # # # # @ - - ; - #   ",
". 0 ,.; s q q q 1 - ;.=.% . @ - #.w , 1 < s f h s ; 0.7.7.r.4.# ",
"# ;.5.; h h r q r ; ,.d 1 , , 1 w q q 1 q w r @.h > i.u.q.u.7.% ",
"@ j >.% s h s 0 , - %.w 1 , , , , , , 1 , , 0 f s ; 0.7.7.6.>.# ",
"  # %   @ @ #   . @ @ @ . @ . . @ @ . @ @ . @ @ @ @ % % % % # . "
};
