/* XPM */
static char *out[] = {
/* columns rows colors chars-per-pixel */
"32 32 120 2 ",
"   c #05273C",
".  c #05283E",
"X  c #3A4B3C",
"o  c #4F502D",
"O  c #4A4F30",
"+  c #4A563C",
"@  c #505534",
"#  c #555A36",
"$  c #5D5D32",
"%  c #555D3C",
"&  c #585D3A",
"*  c #635E2F",
"=  c #6B6635",
"-  c #766D33",
";  c #052B42",
":  c #0A2E44",
">  c #052F49",
",  c #0D3145",
"<  c #06314C",
"1  c #0F384E",
"2  c #063553",
"3  c #063856",
"4  c #083957",
"5  c #063A5A",
"6  c #093C5D",
"7  c #113C51",
"8  c #063E61",
"9  c #093F61",
"0  c #12415A",
"q  c #29494C",
"w  c #3B5247",
"e  c #244751",
"r  c #244B54",
"t  c #24515E",
"y  c #29525A",
"u  c #074164",
"i  c #0A4164",
"p  c #09456A",
"a  c #05486F",
"s  c #0A486F",
"d  c #144660",
"f  c #114A6A",
"g  c #064B74",
"h  c #0A4B73",
"j  c #054E79",
"k  c #0A4F79",
"l  c #124F73",
"z  c #05517D",
"x  c #08537F",
"c  c #255B6C",
"v  c #5A735A",
"b  c #656E45",
"n  c #727241",
"m  c #4F7264",
"M  c #4C776E",
"N  c #547969",
"B  c #9D7F27",
"V  c #887633",
"C  c #8B7C40",
"Z  c #A6811E",
"A  c #A9831F",
"S  c #A68525",
"D  c #AA8523",
"F  c #A4862A",
"G  c #A88528",
"H  c #AE8C2C",
"J  c #B08922",
"K  c #B28D2B",
"L  c #B59029",
"P  c #BE962A",
"I  c #A48832",
"U  c #AA8E3C",
"Y  c #B39233",
"T  c #B99534",
"R  c #BC9A3B",
"E  c #C59C2E",
"W  c #C89F2F",
"Q  c #C69D31",
"!  c #C89F30",
"~  c #C19C3A",
"^  c #CCA332",
"/  c #C7A139",
"(  c #CAA43D",
")  c #B59740",
"_  c #BA9D4A",
"`  c #BDA353",
"'  c #C7A447",
"]  c #CAA644",
"[  c #CEA944",
"{  c #C9A649",
"}  c #CBA84A",
"|  c #CDAC52",
" . c #C0A558",
".. c #D2B159",
"X. c #C4AC62",
"o. c #C2AC6C",
"O. c #065482",
"+. c #0A5482",
"@. c #07598C",
"#. c #0A5B8D",
"$. c #145F87",
"%. c #075C90",
"&. c #0A5D91",
"*. c #096194",
"=. c #07629B",
"-. c #0A659B",
";. c #0A699F",
":. c #0E67A0",
">. c #0B6BA4",
",. c #0C6EA9",
"<. c #0B71AB",
"1. c #1675A9",
"2. c #0E74B1",
"3. c #0F79B7",
"4. c #0C7CBC",
"5. c #1075B0",
"6. c #107EBE",
"7. c #0C7FC0",
"8. c #0D80C2",
"9. c #1081C2",
/* pixels */
"      > ; ;       ;     ;   < < < < < < < < ; ; ; > ;   ; ; >   ",
"    4 #.i 6 4 > 5 6 6 i 4 5 >.5.<.<.<.<.<.<.6 g z z j i 6 p #.> ",
"  2 #.h i i 6 > 6 i i i 6 3 >.4.4.4.4.4.7.4.6 x O.x p u i s =.< ",
"> #.h i i i 6 : 5 i i i 6 5 :.8.4.4.4.4.8.4.u *.s i i i i k =.< ",
"; a s s s s i < p s s s p 5 >.9.8.7.8.7.8.6.6 s h a s s k ,.>.> ",
"> *.;.;.;.;.*.2 *.:.;.;.@.9 >.8.9.8.9.9.9.<.5 %.;.;.:.;.;.,.=.> ",
"  < 2 2 5 5 3 > < 2 2 3 3 3 5 8 5 3 3 2 3 3 < < 3 5 5 < < < 2   ",
"; 5 6 p *.=.-.i 6 6 6 i *.=.=.=.@.u x 3 g j j j z ;.&.> ; 5 5 ; ",
"  6 i i p 9 :.s i i i i p f t y y r 0 > 9 p i p p s p < > 6 6 ; ",
"; p h s 9 < :.a i 9 i i w & F S H I = X 7 i i i i 9 p &.< 6 6   ",
"> @.&.&.9 < &.9 6 6 6 % S J W W ^ / R U & 0 6 6 6 6 i &.< 6 6 ; ",
"; 8 3 8 4 4 9 4 2 > O F W E A B Z D Q ] ) * , 2 3 3 5 5 > 6 6 ; ",
"> ;.4 #.-.:.:.:.#.X F E E D E P Q ~ K { ( R # ;.,.,.,.=.< 9 i ; ",
"< 5.4 s k :.+.:.l & K W A E ^ ^ ^ ^ ] H ] ' - 1.4.4.4.<.4 j j ; ",
"2 1.4 9 d s 9 s r F Q Z E W ^ ^ ^ ^ ! ] S ] ` M 4.4.4.<.3 j j > ",
"< :.< 5 9 6 9 6 q G ! Z P ^ ^ ^ ^ ^ ^ { F | X.N 4.4.4.,.3 g a ; ",
". 4 > > > > < 5 X D W A P ^ ^ ^ ^ ^ ^ [ G ..o.N 8.8.8.2.2 5 5 ; ",
". 5 6 6 6 6 i &.c Z W B P ^ ^ ^ ^ ^ ^ } G ..o.m 3.3.3.,.5 *.=.> ",
"; 6 i 9 i i s :.$.= P P J W ^ ^ ^ ^ [ T ~ | C e 9 9 6 5 2 =.=.> ",
". 5 6 6 6 6 6 p u X D W W A E E E ] T / [ ` $ O.i 6 6 6 6 a p ; ",
". < 2 > < < < > > 1 v Y E E B B B A ~ ]  .- 7 h h s h h h h p ; ",
"> -.-.< a j g 6 3 3 1.b H E W W ^ ( '  .n $.3 @.-.-.-.-.-.-.@.> ",
"< <.<.2 u p i i 6 5 <.l & - K L R _ V * 7 5 2 3 5 3 5 3 3 3 3   ",
"< <.<.2 h p i i 6 5 5.k 9 d + o @ + e 6 p -.;.j z z z z j j j > ",
"< ,.<.2 j i i i 6 4 5.h i i 6 ; > 6 i i s O.O.p p z O.O.s k %.< ",
"< <.<.< u u i i 6 3 5.k i i 6 ; . 5 i i i i p i u p i p h %.2   ",
"< <.,.2 6 i i i 9 3 :.s 6 6 4 ; ; 4 6 6 u 6 6 6 5 6 u i #.3     ",
"> ;.,.< i i i i 6 > 3 2 ; ; ; . : > : > ; > > < > ; < 2 6 < <   ",
". u ;.3 g p i i 9 2 *.&.< ; ; < x p 6 6 i g j z j 3 2.<.<.6.:.< ",
"> *.,.3 z z p i h 3 ;.h 9 6 9 9 p 9 i i i i p O.z 5 8.7.4.4.<.< ",
"; z *.< j z j i 6 < &.i 6 6 6 6 6 6 6 9 6 u u j g 2 <.<.<.,.-.> ",
"  > >   ; ; >   . . > ; ; ; . ; . ; . ; ; .   ; > . < < < < <   "
};
