/* XPM */
static char *out[] = {
/* columns rows colors chars-per-pixel */
"32 32 126 2 ",
"   c #05273C",
".  c #05283E",
"X  c #4D502E",
"o  c #434A32",
"O  c #44523C",
"+  c #4D5639",
"@  c #535C3D",
"#  c #6C5F24",
"$  c #625E32",
"%  c #61633F",
"&  c #676B3E",
"*  c #6C6A3A",
"=  c #756C32",
"-  c #052B43",
";  c #052F49",
":  c #06314C",
">  c #0D354B",
",  c #113243",
"<  c #11394C",
"1  c #063653",
"2  c #063856",
"3  c #083957",
"4  c #063A5A",
"5  c #093C5D",
"6  c #123D54",
"7  c #073F61",
"8  c #083F61",
"9  c #16445A",
"0  c #2D4E50",
"q  c #29535C",
"w  c #315556",
"e  c #074164",
"r  c #0A4164",
"t  c #09456A",
"y  c #05486F",
"u  c #0A486F",
"i  c #114460",
"p  c #104969",
"a  c #064B74",
"s  c #0A4B73",
"d  c #054E79",
"f  c #0A4F79",
"g  c #114F73",
"h  c #05517D",
"j  c #08537F",
"k  c #415342",
"l  c #4A5B45",
"z  c #566F57",
"x  c #626C47",
"c  c #6F7244",
"v  c #697854",
"b  c #9C7E27",
"n  c #857633",
"m  c #877E40",
"M  c #A9831F",
"N  c #AC8621",
"B  c #AD8823",
"V  c #A5852B",
"C  c #B38F2A",
"Z  c #B99024",
"A  c #BE962B",
"S  c #A18635",
"D  c #A68835",
"F  c #AD8E34",
"G  c #A78C3C",
"H  c #B79333",
"J  c #B89535",
"K  c #B3933D",
"L  c #B9973B",
"P  c #BB993D",
"I  c #C49B2D",
"U  c #C79E32",
"Y  c #CDA332",
"T  c #CBA53E",
"R  c #B39543",
"E  c #BB9B45",
"W  c #BD9E4B",
"Q  c #B99F54",
"!  c #BDA14D",
"~  c #C09F45",
"^  c #C4A141",
"/  c #CBA642",
"(  c #CBA846",
")  c #C4A44B",
"_  c #C9A74D",
"`  c #D1AB44",
"'  c #D3AE4C",
"]  c #C2A557",
"[  c #C7A855",
"{  c #CBAA53",
"}  c #C1A55A",
"|  c #CBAC59",
" . c #D4B257",
".. c #C2AA65",
"X. c #CEB062",
"o. c #D2B66A",
"O. c #D5B96D",
"+. c #CBB574",
"@. c #D6BC75",
"#. c #D5BC78",
"$. c #065482",
"%. c #0A5482",
"&. c #07598C",
"*. c #0A5B8D",
"=. c #195F80",
"-. c #075E92",
";. c #0A5D91",
":. c #096195",
">. c #07629B",
",. c #0A659B",
"<. c #0A699F",
"1. c #1A6991",
"2. c #166D99",
"3. c #0E67A0",
"4. c #0B6BA4",
"5. c #0C6EA9",
"6. c #0B71AC",
"7. c #1375AD",
"8. c #0E74B1",
"9. c #0F79B7",
"0. c #0C7CBC",
"q. c #1075B0",
"w. c #107EBE",
"e. c #0C7FC0",
"r. c #0D80C2",
"t. c #1081C2",
/* pixels */
"      ; - -       - - -     > : : : : : : > - - - ; ; -   - ;   ",
"    3 *.r 5 3 ; 4 5 5 5 3 4 4.q.6.6.6.5.6.6.4 a $.d a 8 5 t &.; ",
"  1 *.s r r 5 ; 5 r r r 5 4 4.0.0.0.0.0.r.w.5 $.$.h t r 8 u >.: ",
"; *.s r r r 5 - 5 r r r 5 4 4.0.0.0.0.0.0.0.e :.a r r r r d 3.; ",
"- u u u u u t ; t u u u 8 7 5.e.e.e.e.e.r.w.4 y s y u y f 5.4.; ",
"; :.<.<.<.<.:.1 -.3.3.<.&.8 4.e.r.r.t.r.t.6.5 *.<.3.<.3.3.5.>.; ",
"  : 1 1 4 4 3 ; ; 1 1 1 3 1 7 7 5 2 4 2 4 1 : 1 2 4 4 : ; 1 1 . ",
"  4 5 t :.>.,.r 8 8 8 t -.>.-.3.&.7 h 2 y d d d h ,.-.; - 4 3 - ",
"- 5 r t r 8 4.u 8 8 r t p q w w w 0 9 : 8 r t r t u t > - 5 5 - ",
"- t u t 8 : 3.u r r 8 i l b R S b G % , 5 r r r r r t -.: 8 5 - ",
"; &.:.-.8 > ;.8 5 5 5 @ F U / { E ~ ] $ 6 5 5 5 5 5 r -.1 5 5 - ",
"- 5 1 7 3 3 8 5 1 ; X V U B N A _ E ) Q $ > ; 1 2 2 4 4 - 5 5   ",
": <.3 ;.,.3.,.3.*.< # I Z I _ H P o.K _ n =.4 <.6.5.4.>.1 8 r - ",
": q.1 u f 3.%.3.g k B I b I ' ~ L O.K ^ ! & 7 7.0.0.0.6.1 a d - ",
"1 q.3 8 r u r u 8 l C M I Y Y  .} } K ^ { = e 6.0.0.0.6.3 d h - ",
"> ,.> 3 5 5 8 5 5 + C b I I Y ` ~ E F / | = e 6.0.0.0.6.1 a a - ",
"- 3 ; ; ; ; : 4 ; X Z b I Y Y ` P W F ( X.= 7 q.e.e.e.8.1 7 4 - ",
"  3 5 5 5 5 r -.f X Z b I Y Y T J ..R ( o.= 7 4.9.w.9.5.3 -.-.; ",
"- 5 8 r r r u 3.-.O C I b I ` [ H #.R _ +.& 3 7 8 8 5 4 1 -.3.; ",
"- 3 5 5 5 5 5 t r 6 = I b I _ ] W @.K _ m 1.3 $.8 5 5 5 7 y y - ",
"  1 1 ; : : : ; - 3 z F I b B ~ o.W ~ ..v <.2 a s s s a s u t - ",
"; ,.,.: y a a 5 3 3 7.x C U / O.} ~ [ c 2.;.2 &.,.,.,.>.,.,.;.; ",
": 5.5.1 t t t r 5 4 7.g l V L D b R * < 3 5 1 3 2 4 2 2 4 2 1 - ",
": 6.6.1 a r r r 5 3 q.f i k O o O k 6 5 r ,.3.d d h $.d d d d - ",
": 6.5.1 d e r r 5 3 q.f 8 8 5 - ; 5 r r t $.$.y t h $.h y f -.; ",
": 6.6.1 e e r r 8 3 q.s r r 5 - - 3 r r r r t r r e t t s *.3   ",
": 5.5.1 5 r r r 8 1 4.t 8 8 3 - - 3 5 5 5 5 5 5 5 5 8 r *.2     ",
"; <.5.: r r r r 5 ; 3 1 - - -   - ; ; - ; : ; : : - 1 1 3 : ;   ",
". e <.1 a t r r 8 : ,.;.: - - : j t 8 5 r a d h d 1 8.8.8.0.4.; ",
"; :.5.1 h h t t a 3 <.s 8 5 5 8 r r 8 i r t t $.h 4 r.0.0.0.6.: ",
"- j :.1 a h a r 5 : ;.r 8 5 5 5 5 5 8 8 5 7 e d a 2 6.8.6.6.,.; ",
"  ; ;   - ; -   -   ; -   - - -   - - -   -   - ;   : : : : ;   "
};
