/* XPM */
static char *out[] = {
/* columns rows colors chars-per-pixel */
"32 32 92 1 ",
"  c #05273C",
". c #05283E",
"X c #1F3A3F",
"o c #283D39",
"O c #344133",
"+ c #34473C",
"@ c #394C3E",
"# c #414B33",
"$ c #052B42",
"% c #052F49",
"& c #06314D",
"* c #063653",
"= c #063856",
"- c #083957",
"; c #063A5A",
": c #093C5D",
"> c #073F61",
", c #083F61",
"< c #1F424C",
"1 c #1B485B",
"2 c #2A4544",
"3 c #28494D",
"4 c #364D44",
"5 c #375049",
"6 c #3A5248",
"7 c #2C4C50",
"8 c #2C5157",
"9 c #335453",
"0 c #345957",
"q c #345D5E",
"w c #074164",
"e c #0A4165",
"r c #09456A",
"t c #05486F",
"y c #0A486F",
"u c #1D4E63",
"i c #064B74",
"p c #0A4B73",
"a c #054E79",
"s c #0A4E79",
"d c #05517D",
"f c #0A517D",
"g c #2C5861",
"h c #2B5C69",
"j c #2C6576",
"k c #435543",
"l c #846C1D",
"z c #8B7933",
"x c #A5862C",
"c c #A78830",
"v c #A98B35",
"b c #8A824D",
"n c #A58E44",
"m c #A79049",
"M c #A9934F",
"N c #AB9759",
"B c #AC985C",
"V c #AD9A62",
"C c #C1A34F",
"Z c #CFAC4D",
"A c #C0A558",
"S c #D2B156",
"D c #D4B45F",
"F c #D8BC71",
"G c #DCC27E",
"H c #065482",
"J c #0A5382",
"K c #07598C",
"L c #0A5B8D",
"P c #075E93",
"I c #0A5D91",
"U c #096195",
"Y c #07629B",
"T c #0A659B",
"R c #0A699F",
"E c #226784",
"W c #0B67A1",
"Q c #0768A5",
"! c #0B6BA4",
"~ c #0C6FAA",
"^ c #0B71AC",
"/ c #1074AE",
"( c #0E74B0",
") c #0F79B7",
"_ c #0C7CBC",
"` c #1075B0",
"' c #107EBE",
"] c #0C7FC0",
"[ c #0D80C2",
"{ c #1081C2",
"} c #DDC481",
"| c #DEC789",
/* pixels */
"   %$$  $$.$..&&&&&%&&$$%%% $$% ",
"  -Le:-%-,::--!`^^^^(^-idaie:eK&",
" *Lpee:%:,ee:;!'____[_:HHdreerY&",
"%Lpeee:$,ee,:-Q'______wUpweersY&",
"$ypyyyr%,pyy,-W]]]_[[';ypyyys!!&",
"%URRRRU*IWWWI,~][[{{{^;LYRWRR~R%",
" &&*;;-%&*=--*,,:;;=;=&*=;;&%*%$",
" ;eeUYTe,,,,IYTTK:d=taaadRI%$;=$",
"$:ee,,Wy,e,rryru81:&eereryr&$::$",
"$ryy,*Wyeee,,u,kl6;%:eeeeerI&,:$",
"%KYL,&Lu::::::7zAb<%-ee-::eI&,:$",
"$:=:-*,--$$$. oc|VO&%%%*===:%:: ",
"&R-LT!T!L&$$$$ox}V2JyL;T^!!Y&ee ",
"*(-rsWJWs:::::4cGB3yyRw/___^=ai%",
"&`-eeyeyeeee,,kvGN8eyRw(___^=ad%",
"&T&-::::::::::5vFM3eyTw^___^*it$",
"$*%%&%&=&&-&%&+xDm9eJT,`]]](*,>$",
".-::::eIf-Wr,p0cDm8p!Q,W)))~-PI%",
"$:,eeer!Ue/prJqxSnhs^Q=>,,,-=YP&",
".-:::::re;/srHqxZnjf^Q=J,,,:>yr$",
".**%&&&%%=/prs9xSngJ^Q=ipppyypr$",
"%TT&iii:-=`prr3zCbER!P*KYTTRYYL%",
"&^~&rrre::`srp,#l@====*====;;;= ",
"&^^=ieee:-`p,e:X@3;:rYWHadHaaaa$",
"&^^*iwee:-`s,e:$%:eerHHtrdHdtfL%",
"&^^*wwee,-`pee-$$-eeeerewrrrpL= ",
"&^^*:eee,*!r,:-$$-:::::::::eL=  ",
"%T!&eeee:%-*$$$.$%%$%&%&%$**-*% ",
" wR*iree,*UI&$.*fr::eiidi=(^^_!%",
"%U^*ddrey*Rp,::,reeeeryHd;[[__^&",
"$dU*idie:*Lr:,::::::::wii=^^^~R%",
" %% $%$$..%$.$.$$.$$$ $%$$&&&&% "
};
