/* XPM */
static char *out[] = {
/* columns rows colors chars-per-pixel */
"32 32 122 2 ",
"   c #05273C",
".  c #05283E",
"X  c #0E2E3E",
"o  c #4F502D",
"O  c #57552C",
"+  c #4F5436",
"@  c #49563D",
"#  c #505534",
"$  c #5E5E33",
"%  c #525A3B",
"&  c #585D39",
"*  c #625E2E",
"=  c #5A613B",
"-  c #776522",
";  c #6B6632",
":  c #6E6933",
">  c #63663B",
",  c #6B6E3F",
"<  c #716A32",
"1  c #72723F",
"2  c #052B42",
"3  c #052F49",
"4  c #082F48",
"5  c #06314C",
"6  c #0F3448",
"7  c #133C4F",
"8  c #063553",
"9  c #063856",
"0  c #083857",
"q  c #063A5A",
"w  c #093C5D",
"e  c #073F61",
"r  c #093F61",
"t  c #19404F",
"y  c #174357",
"u  c #11405A",
"i  c #244A52",
"p  c #294D52",
"a  c #24515E",
"s  c #29525A",
"d  c #074164",
"f  c #0A4165",
"g  c #09456A",
"h  c #05486F",
"j  c #0A486F",
"k  c #134560",
"l  c #114A6A",
"z  c #064B74",
"x  c #0A4B73",
"c  c #054E79",
"v  c #0A4F79",
"b  c #05517D",
"n  c #08537F",
"m  c #175170",
"M  c #495944",
"N  c #636D46",
"B  c #6B7347",
"V  c #637655",
"C  c #81702B",
"Z  c #9B7C21",
"A  c #A6811E",
"S  c #A9831F",
"D  c #9E8128",
"F  c #9E893B",
"G  c #AB8622",
"H  c #AF8822",
"J  c #A5872B",
"K  c #A7882D",
"L  c #AB8A2B",
"P  c #B38C24",
"I  c #B18E2A",
"U  c #B89127",
"Y  c #B5922D",
"T  c #BC952A",
"R  c #BF982D",
"E  c #A18530",
"W  c #AC8D35",
"Q  c #AD8D3A",
"!  c #B29236",
"~  c #B89631",
"^  c #B7963F",
"/  c #C49B2D",
"(  c #C89F2F",
")  c #C39D34",
"_  c #C99F30",
"`  c #C59F38",
"'  c #CCA333",
"]  c #CCA53A",
"[  c #B89C4A",
"{  c #BFA14C",
"}  c #CFA944",
"|  c #CAA749",
" . c #CCAE5C",
".. c #CCB26C",
"X. c #D2B566",
"o. c #D4B76D",
"O. c #CDB574",
"+. c #065482",
"@. c #0A5482",
"#. c #07598C",
"$. c #0A5B8D",
"%. c #145F87",
"&. c #075C90",
"*. c #0A5D91",
"=. c #096195",
"-. c #07629B",
";. c #0A659B",
":. c #0A699F",
">. c #20769F",
",. c #0E67A0",
"<. c #0B6BA4",
"1. c #0C6EA9",
"2. c #0B71AC",
"3. c #1074AE",
"4. c #0E74B1",
"5. c #0F79B7",
"6. c #0C7CBC",
"7. c #1075B0",
"8. c #107EBE",
"9. c #0C7FC0",
"0. c #0D80C2",
"q. c #1081C2",
/* pixels */
"      4 2 2     2   2 2   2 5 5 5 5 5 5 5 5 2 2 3 2 2 2   2 3   ",
"    0 $.f w 0 3 0 w w w 0 q <.7.2.2.2.2.2.2.0 z b b z d w g #.5 ",
"  8 $.x f f w 3 w f f f w q <.6.6.6.6.6.9.8.q +.+.n g f f j ;.5 ",
"3 $.x f f f w 2 w f f f w 9 ,.9.6.6.6.6.9.9.d =.x f f f f v -.3 ",
"2 j x j j j f 5 f x j h f q <.q.0.6.9.9.0.8.w j x j j h v 1.<.3 ",
"3 =.:.:.:.:.=.8 =.;.,.:.$.e 1.q.0.0.q.q.q.2.q #.;.:.:.<.,.1.-.3 ",
"  5 5 8 q q 9 3 5 8 8 8 9 8 q e q 9 q 9 0 9 5 8 9 q q 5 5 5 8 . ",
"  q d g =.-.;.f r r q g =.-.-.-.#.d n 9 h c c c b ;.*.3 2 q q 2 ",
"2 w f f f e ,.j f f f f j l a s s p i 6 f f g f g j g 5 2 w w 2 ",
"2 g j j r 8 ,.h f f f f u M D Z Z K E + u f f f f f j *.5 r w 2 ",
"3 #.=.*.w 5 *.f w w w w % J T H T ' ' W & u w w q w f *.8 w w 2 ",
"2 e 8 e 0 0 r 0 8 2 X O L / H / U A A ) ! * 4 8 9 9 q q 3 w w   ",
"3 :.0 $.,.,.,.,.*.5 X - T G / U P ) ~ H ) < t ,.1.1.1.-.5 r f 2 ",
"8 7.0 j v ,.@.,.v w # L / A / U P ' } G ) [ = 3.6.6.6.2.8 c z 2 ",
"5 3.0 w f l g j f f $ T ( A U S _ ' ] | W  .: 2.6.6.6.2.8 b b 3 ",
"5 ,.5 0 w w w w w w $ T / A U H ' ' '  .W ..: 2.6.6.6.2.8 h z 2 ",
"2 0 4 4 3 3 5 9 8 3 $ U ( S U G _ ' ] X.Q O.: 7.0.0.0.4.8 q q 2 ",
"  0 w r r r e *.v 0 B / ( Z U G ( ' ] o.Q O.; 1.5.8.5.1.q =.-.3 ",
"2 w r r r g j ,.=.e V R / Z / P U ' } ^ ` O.* d r w w q 8 -.-.3 ",
"2 0 w w w w w j f q >.C / H / U P ) _ L X.F t @.r w w w r h g 2 ",
"  0 8 3 3 8 5 3 3 0 7.N I ) G / U A A ` { , 9 z x j x x j x g 2 ",
"3 =.-.5 h z z q 0 9 7.m ; Y T H / ( ) | 1 %.9 #.;.;.;.-.;.-.$.3 ",
"5 2.2.8 f j g r r 0 7.v k > I G Z U ! < 7 q 8 9 q 9 q 9 9 9 9   ",
"5 2.2.8 x g f r w 0 3.v r k @ o # % @ y f -.,.b c b b b c b z 3 ",
"3 2.1.8 z d f f w 0 7.v r f 0 4 4 w f f g @.+.h h n +.+.j v =.4 ",
"5 2.2.8 d d f f w q 7.v f f w 2 2 w f f f g f f f d f g x $.8   ",
"5 2.2.5 w f f f w 8 ,.j w w 0 2 2 0 0 w w w w w d w d f $.9     ",
"2 :.1.8 f f f f w 3 q 8 2 2 . . 3 4 3 2 3 5 3 5 2 2 5 8 q 5 5   ",
". d :.8 z g f f r 8 =.&.3 2 2 8 v j w w f z b b z 9 7.2.2.6.<.5 ",
"5 =.1.8 b b g g z 8 ;.v r w w r f f f f f f g +.n q q.9.6.6.2.5 ",
"2 b =.8 z c z f q 8 $.f r w w w w w w r q f d b z 9 2.2.2.2.-.5 ",
". 2 3 . 2 3 2 2 2   3 2 2 2   2 2 2   2 . . . 2 2 . 5 5 5 5 3   "
};
