/* XPM */
static char *out[] = {
/* columns rows colors chars-per-pixel */
"32 32 111 2 ",
"   c #05273C",
".  c #05283E",
"X  c #17333C",
"o  c #243E3F",
"O  c #4F502D",
"+  c #4E5435",
"@  c #48553C",
"#  c #5A5E39",
"$  c #625927",
"%  c #796724",
"&  c #73692F",
"*  c #796929",
"=  c #6D6630",
"-  c #736B30",
";  c #052B42",
":  c #0B2D40",
">  c #052F49",
",  c #06314C",
"<  c #0C344A",
"1  c #153440",
"2  c #063653",
"3  c #063856",
"4  c #083957",
"5  c #063A5A",
"6  c #093C5D",
"7  c #113F59",
"8  c #073F61",
"9  c #083F61",
"0  c #12425D",
"q  c #1A475B",
"w  c #2B4442",
"e  c #21444F",
"r  c #2A494C",
"t  c #204B5B",
"y  c #24515E",
"u  c #074164",
"i  c #0A4165",
"p  c #09456A",
"a  c #05486F",
"s  c #0A486F",
"d  c #144660",
"f  c #134A67",
"g  c #114A6A",
"h  c #194F68",
"j  c #1A5169",
"k  c #064B74",
"l  c #0A4B73",
"z  c #054E79",
"x  c #0A4F79",
"c  c #124F73",
"v  c #05517D",
"b  c #08537F",
"n  c #1A5572",
"m  c #2D5D69",
"M  c #836C22",
"N  c #8A7426",
"B  c #87732A",
"V  c #88742A",
"C  c #8C782D",
"Z  c #9C7D23",
"A  c #887931",
"S  c #A88625",
"D  c #AD8925",
"F  c #B38C25",
"G  c #B28E2A",
"H  c #BB9329",
"J  c #B18F33",
"K  c #B49234",
"L  c #B89537",
"P  c #BB9834",
"I  c #B3933D",
"U  c #BB983C",
"Y  c #B29342",
"T  c #BA9A45",
"R  c #BB9D4B",
"E  c #BC9F53",
"W  c #BDA156",
"Q  c #BDA25A",
"!  c #C7A342",
"~  c #CEAA49",
"^  c #CBAA53",
"/  c #C4A964",
"(  c #C5AC6B",
")  c #D3B973",
"_  c #065482",
"`  c #0A5482",
"'  c #07598C",
"]  c #0A5B8D",
"[  c #075E93",
"{  c #0A5D91",
"}  c #1C688B",
"|  c #096195",
" . c #07629B",
".. c #0A659B",
"X. c #0A699F",
"o. c #1D6D98",
"O. c #0B67A1",
"+. c #0768A5",
"@. c #0B6BA4",
"#. c #0C6EA9",
"$. c #0B71AC",
"%. c #1C73A3",
"&. c #1173AE",
"*. c #0E74B1",
"=. c #0F79B7",
"-. c #0C7CBC",
";. c #1075B0",
":. c #107EBE",
">. c #0C7FC0",
",. c #0D80C2",
"<. c #1081C2",
/* pixels */
"      > ; ;     : ; ; ;     < , , , , , , ,   ; ; > ; ;   ; >   ",
"    4 ] i 6 4 > 4 6 6 6 4 4 @.;.$.$.$.#.*.$.5 z v z z 9 6 p ' > ",
"  2 ] l i i 6 > 6 i 9 i 9 4 +.>.-.-.-.-.,.:.6 _ _ _ p i i s  ., ",
"> ] l i i i 6 : 9 i i i 6 4 +.-.-.-.-.-.-.-.u | l u i i i x  ., ",
"; a s s s s p > i s s s 9 9 @.>.>.>.,.,.,.:.5 s l s s l x #.+.> ",
"> | X.X.X.X.{ 2 { O.O.O.] 9 @.>.,.,.<.<.<.$.6 '  .X.X.O.X.#. .> ",
"  , 2 2 5 5 3 > , 2 2 5 3 2 9 8 6 3 3 3 3 2 , 2 3 5 5 , > 2 2 . ",
"  5 6 p  . ...i 9 9 9 9 [  . .[ ' 8 _ 2 k z z z v X.[ > ; 4 4 : ",
"; 6 i i 9 9 O.s 9 i i i s f y m t q i , 8 i p i p s p , ; 6 6 ; ",
"; p s s 9 2 O.s 9 i i i 9 q V Z Z - e > 6 i i u i i s { , 6 6 ; ",
"> ' | { 9 , { 9 6 9 9 6 7 # J ! K S & 1 3 6 5 0 6 5 i { < 9 6 ; ",
"; 8 2 8 4 4 9 7 2 ; ; : X M H L U F Z o , , < 2 3 3 4 6 > 6 6   ",
", ..4 ] ..O...O.{ < ; : $ F H J ^ G D - f ] 5 ..$.#.+. .2 8 u ; ",
"2 ;.4 s x O.` O.l 9 6 7 * H J R T T F N j ..u &.-.-.-.$.2 k z ; ",
"< ;.4 6 d s 9 s 9 9 9 d * H I / E E F N h ..i $.-.-.-.$.4 z v ; ",
"< ..2 4 9 6 9 6 9 9 9 7 * H Y / W W F N h ..i $.-.-.-.$.2 k k ; ",
"; 4 > > > > 2 4 2 < 4 < % H Y ( Q Q F N n  .i ;.>.,.-.*.2 3 5 ; ",
". 4 6 6 6 6 9 [ z 4 ..g * H Y ( E E F C o.+.6 #.=.=.:.$.3  .| > ",
"; 6 9 i i i s O.| 9 ;.c * H I / T T F A %.+.2 8 9 6 8 3 2  . .> ",
". 4 6 6 6 6 5 p 9 6 ;.c = G H I ) E D A %.+.5 _ i 6 6 6 8 s p ; ",
". 2 2 ; , 2 > > > 4 *.l t B H U T G Z m &.+.3 k l s l l l l p ; ",
"> .. .< p k k 8 4 4 ;.l i = P ~ U D A } @.[ 3 ' ...... . ...] > ",
", $.$.2 p p i i 9 4 ;.x i m C J D B w 4 4 5 2 4 5 5 3 3 3 3 2   ",
", $.$.2 l s i 9 6 4 ;.x i d @ O + r 6 6 p | O.v z v v v v z z > ",
", $.$.3 k p u i 6 4 ;.x 9 i 4 ; > 6 i i p ' ` p p v _ _ s x ] , ",
", #.#., u u i i 9 2 ;.x i i 6 ; ; 5 i i i i i i u p p p l ] 3   ",
", #.#.2 6 i i i 9 4 @.s 6 6 4 ; ; 4 u 6 0 6 5 u 5 u 5 i ] 3     ",
"> X.#.2 i 6 u i 6 > 3 < : ; ;   ; > ; ; ; > > , > ; , 2 5 , ,   ",
"  p X.2 k p i i 9 2 | { > :   2 b p 6 6 i l v v z 3 *.$.$.-.O., ",
"> | @.3 v b p p k 2  .x 9 9 6 9 p i i i i i p _ v 5 <.>.-.>.$., ",
"; v | 2 z v z 9 6 2 ' p 9 9 6 9 6 6 6 6 u 5 u v k 3 $.$.$.$...> ",
"  > >   ; ; ; ; ;   > ;   ;   ; ;   ; ; ; .   ; ;   , , , , >   "
};
